<?xml version="1.0" standalone="no"?>
<!DOCTYPE svg PUBLIC "-//W3C//DTD SVG 20010904//EN"
 "http://www.w3.org/TR/2001/REC-SVG-20010904/DTD/svg10.dtd">
<svg version="1.0" xmlns="http://www.w3.org/2000/svg"
 width="256.000000pt" height="256.000000pt" viewBox="0 0 256.000000 256.000000"
 preserveAspectRatio="xMidYMid meet">

<g transform="translate(0.000000,256.000000) scale(0.100000,-0.100000)"
fill="#000000" stroke="none">
<path d="M2003 2545 c-83 -18 -154 -57 -228 -127 l-62 -57 -64 66 c-35 36 -82
74 -104 84 -51 24 -119 24 -170 0 -26 -12 -139 -119 -323 -303 -255 -256 -282
-287 -282 -317 0 -45 46 -91 91 -91 30 0 60 27 309 275 151 151 281 275 288
275 8 0 40 -26 73 -57 l60 -57 -724 -725 c-436 -438 -728 -738 -735 -756 -22
-59 -132 -515 -132 -547 0 -59 44 -134 96 -167 80 -51 99 -50 394 24 146 36
278 75 295 85 16 10 404 394 861 852 624 626 837 846 857 884 96 182 65 398
-77 538 -64 64 -136 103 -223 121 -82 18 -119 18 -200 0z m213 -194 c48 -22
105 -78 130 -129 10 -21 20 -68 22 -108 5 -90 -16 -142 -89 -219 l-53 -56
-193 193 -193 193 52 52 c98 99 208 124 324 74z m-1649 -2077 c-6 -7 -330 -84
-350 -84 -14 0 -27 6 -30 14 -5 11 26 145 74 330 l11 39 148 -148 c82 -82 148
-150 147 -151z"/>
</g>
</svg>
