<?xml version="1.0" standalone="no"?>
<!DOCTYPE svg PUBLIC "-//W3C//DTD SVG 20010904//EN"
 "http://www.w3.org/TR/2001/REC-SVG-20010904/DTD/svg10.dtd">
<svg version="1.0" xmlns="http://www.w3.org/2000/svg"
 width="128.000000pt" height="128.000000pt" viewBox="0 0 128.000000 128.000000"
 preserveAspectRatio="xMidYMid meet">

<g transform="translate(0.000000,128.000000) scale(0.100000,-0.100000)"
fill="#000000" stroke="none">
<path d="M594 1270 c-29 -12 -563 -529 -580 -562 -37 -71 6 -150 91 -168 l30
-6 5 -214 c5 -235 7 -241 67 -287 l36 -28 397 0 397 0 36 28 c64 49 67 62 67
292 0 156 3 207 13 209 6 3 25 7 40 11 62 13 102 95 77 155 -15 35 -551 557
-586 571 -30 11 -61 11 -90 -1z m326 -336 c294 -282 303 -295 215 -304 -27 -3
-56 -9 -62 -13 -10 -6 -13 -64 -13 -233 0 -293 0 -294 -131 -294 l-69 0 0 153
c0 142 -2 157 -23 198 -37 69 -81 89 -197 89 -116 0 -160 -20 -197 -89 -21
-41 -23 -56 -23 -198 l0 -153 -69 0 c-131 0 -131 1 -131 294 0 169 -3 227 -12
233 -7 4 -35 10 -63 13 -87 9 -78 22 215 304 146 141 272 256 280 256 8 0 134
-115 280 -256z m-171 -520 c19 -24 21 -40 21 -175 l0 -149 -130 0 -130 0 0
149 c0 135 2 151 21 175 19 25 25 26 109 26 84 0 90 -1 109 -26z"/>
</g>
</svg>
