<?xml version="1.0" standalone="no"?>
<!DOCTYPE svg PUBLIC "-//W3C//DTD SVG 20010904//EN"
 "http://www.w3.org/TR/2001/REC-SVG-20010904/DTD/svg10.dtd">
<svg version="1.0" xmlns="http://www.w3.org/2000/svg"
 width="256.000000pt" height="256.000000pt" viewBox="0 0 256.000000 256.000000"
 preserveAspectRatio="xMidYMid meet">

<g transform="translate(0.000000,256.000000) scale(0.100000,-0.100000)"
fill="#000000" stroke="none">
<path d="M1095 2545 c-220 -31 -376 -90 -565 -213 -98 -64 -266 -227 -329
-321 -228 -337 -262 -763 -89 -1115 65 -134 126 -216 249 -338 l119 -117 0
-219 0 -220 217 118 218 118 90 -19 c50 -11 149 -22 220 -26 288 -13 571 66
811 227 93 63 264 230 321 315 236 352 266 770 82 1138 -63 124 -113 192 -223
303 -291 291 -706 428 -1121 369z m84 -871 c11 -14 83 -90 160 -170 l141 -145
277 154 c153 85 293 162 312 171 21 12 -89 -112 -309 -346 -188 -199 -346
-364 -350 -366 -5 -2 -177 176 -311 322 -16 18 -27 13 -329 -152 -172 -94
-306 -163 -298 -152 31 43 664 709 675 709 6 1 21 -10 32 -25z"/>
</g>
</svg>
