<?xml version="1.0" standalone="no"?>
<!DOCTYPE svg PUBLIC "-//W3C//DTD SVG 20010904//EN"
 "http://www.w3.org/TR/2001/REC-SVG-20010904/DTD/svg10.dtd">
<svg version="1.0" xmlns="http://www.w3.org/2000/svg"
 width="256.000000pt" height="256.000000pt" viewBox="0 0 256.000000 256.000000"
 preserveAspectRatio="xMidYMid meet">

<g transform="translate(0.000000,256.000000) scale(0.100000,-0.100000)"
fill="#000000" stroke="none">
<path d="M1229 2541 c-23 -18 -24 -27 -29 -162 l-5 -142 -69 -14 c-267 -54
-496 -272 -567 -540 -18 -66 -22 -121 -29 -353 -6 -260 -8 -279 -33 -355 -36
-109 -88 -194 -175 -284 -41 -42 -80 -87 -87 -101 -49 -94 -9 -207 90 -251 35
-16 69 -19 303 -19 215 0 262 -2 262 -14 0 -7 16 -45 35 -83 43 -86 103 -144
193 -186 61 -29 76 -32 162 -32 86 0 101 3 162 32 90 42 150 100 193 186 19
38 35 76 35 83 0 12 47 14 263 14 233 0 267 3 302 19 99 45 138 156 89 253 -7
14 -37 48 -65 75 -90 84 -157 190 -199 313 -20 59 -23 93 -30 345 -7 236 -11
292 -29 358 -31 117 -92 226 -178 318 -113 119 -240 192 -390 222 l-68 14 -5
142 c-5 135 -6 144 -29 162 -13 10 -36 19 -51 19 -15 0 -38 -9 -51 -19z m241
-494 c142 -50 264 -156 330 -286 57 -113 62 -145 70 -446 6 -241 11 -290 29
-352 45 -155 106 -259 219 -375 63 -66 73 -80 62 -93 -11 -13 -116 -15 -900
-15 -784 0 -889 2 -900 15 -11 13 -1 27 62 93 113 116 174 220 219 375 19 62
23 111 29 352 8 298 13 332 67 440 54 108 156 211 266 267 125 63 307 74 447
25z m30 -1743 c0 -27 -101 -119 -146 -132 -95 -28 -168 -8 -241 65 -85 84 -87
83 167 83 193 0 220 -2 220 -16z"/>
<path d="M449 2371 c-162 -169 -284 -418 -324 -661 -17 -107 -20 -232 -5 -259
16 -31 64 -45 96 -29 39 18 54 52 54 124 0 133 48 320 118 459 45 90 96 166
174 255 72 84 79 118 34 157 -46 39 -73 31 -147 -46z"/>
<path d="M1960 2415 c-39 -42 -31 -74 38 -155 78 -89 129 -165 174 -255 70
-139 118 -326 118 -459 0 -72 15 -106 54 -124 32 -16 80 -2 96 29 15 27 12
154 -6 260 -41 247 -161 491 -323 660 -76 79 -109 89 -151 44z"/>
</g>
</svg>
