<?xml version="1.0" standalone="no"?>
<!DOCTYPE svg PUBLIC "-//W3C//DTD SVG 20010904//EN"
 "http://www.w3.org/TR/2001/REC-SVG-20010904/DTD/svg10.dtd">
<svg version="1.0" xmlns="http://www.w3.org/2000/svg"
 width="512.000000pt" height="512.000000pt" viewBox="0 0 512.000000 512.000000"
 preserveAspectRatio="xMidYMid meet">

<g transform="translate(0.000000,512.000000) scale(0.100000,-0.100000)"
fill="#000000" stroke="none">
<path d="M2157 4139 c-114 -27 -210 -120 -236 -229 -16 -63 -292 -2331 -293
-2405 -2 -83 24 -154 79 -215 89 -99 36 -89 1037 -211 601 -74 906 -108 936
-104 65 9 122 37 174 85 93 86 79 7 241 1334 80 653 145 1210 145 1237 0 130
-98 258 -224 294 -28 8 -145 26 -261 40 -115 14 -300 36 -410 49 -845 104
-1117 136 -1132 135 -10 -1 -35 -5 -56 -10z m948 -309 c489 -60 843 -107 863
-115 18 -9 39 -29 48 -48 15 -30 12 -58 -36 -457 -28 -234 -53 -436 -56 -449
-5 -22 -22 -7 -183 152 -170 170 -179 177 -217 177 -26 0 -51 -8 -70 -22 -17
-13 -180 -151 -363 -308 -182 -157 -336 -287 -342 -288 -5 -2 -60 37 -122 87
-130 103 -156 116 -201 101 -17 -5 -132 -77 -256 -160 -123 -82 -225 -148
-226 -147 -3 3 172 1447 181 1492 3 16 17 42 32 57 22 23 36 28 72 28 25 0
419 -45 876 -100z m711 -1967 c-41 -330 -79 -610 -85 -622 -18 -33 -53 -51
-98 -51 -24 0 -224 22 -445 50 -222 27 -592 72 -823 100 -231 28 -432 53 -447
56 -43 9 -78 58 -77 107 0 23 15 159 32 302 l32 260 271 182 271 181 241 -193
c133 -106 249 -196 258 -199 67 -26 144 21 144 88 0 54 -15 76 -96 140 -41 33
-74 62 -73 65 0 3 134 120 297 259 l296 253 188 -188 187 -188 -73 -602z"/>
<path d="M2484 3616 c-93 -23 -175 -92 -216 -181 -35 -76 -33 -191 5 -267 30
-62 83 -115 149 -150 36 -19 58 -23 138 -23 80 0 102 4 138 23 66 35 119 88
149 150 38 77 39 190 4 270 -60 134 -225 214 -367 178z m139 -226 c38 -30 52
-80 33 -123 -15 -37 -59 -67 -96 -67 -37 0 -81 30 -96 67 -29 68 21 143 96
143 22 0 48 -8 63 -20z"/>
<path d="M1311 3974 c-190 -15 -213 -20 -272 -49 -92 -47 -169 -169 -169 -269
0 -56 178 -2360 186 -2406 18 -107 106 -212 206 -246 61 -21 193 -23 230 -4
37 20 58 52 58 93 0 78 -40 107 -150 107 -65 0 -74 2 -100 28 -16 16 -31 44
-34 63 -3 19 -46 560 -96 1203 -88 1143 -90 1170 -72 1200 10 17 29 36 43 42
13 7 125 20 249 29 144 11 235 23 253 32 35 17 61 74 52 114 -4 16 -20 40 -37
54 -27 23 -37 25 -111 24 -45 -1 -151 -7 -236 -15z"/>
</g>
</svg>
