<?xml version="1.0" standalone="no"?>
<!DOCTYPE svg PUBLIC "-//W3C//DTD SVG 20010904//EN"
 "http://www.w3.org/TR/2001/REC-SVG-20010904/DTD/svg10.dtd">
<svg version="1.0" xmlns="http://www.w3.org/2000/svg"
 width="256.000000pt" height="267.000000pt" viewBox="0 0 256.000000 267.000000"
 preserveAspectRatio="xMidYMid meet">

<g transform="translate(0.000000,267.000000) scale(0.100000,-0.100000)"
fill="#000000" stroke="none">
<path d="M1055 2431 c-219 -47 -401 -142 -561 -293 -472 -446 -481 -1185 -20
-1644 173 -172 375 -278 610 -319 367 -64 738 54 1002 319 350 349 439 871
224 1312 -147 304 -420 526 -757 615 -115 31 -373 36 -498 10z m413 -157 c309
-64 557 -254 693 -529 75 -153 101 -268 101 -440 0 -118 -4 -155 -25 -236 -47
-181 -132 -330 -258 -457 -387 -389 -1009 -389 -1397 0 -127 127 -212 276
-259 457 -37 139 -36 333 1 476 96 372 393 655 766 730 93 19 285 18 378 -1z"/>
<path d="M1189 1907 c-103 -29 -185 -101 -231 -203 -34 -75 -32 -189 5 -269
34 -73 95 -138 162 -173 72 -37 197 -43 277 -12 232 87 297 392 120 568 -82
83 -223 120 -333 89z m159 -162 c107 -45 148 -163 92 -263 -84 -149 -315 -109
-345 59 -25 138 123 258 253 204z"/>
<path d="M1124 1036 c-132 -30 -260 -97 -350 -181 -42 -40 -54 -57 -54 -80 1
-34 15 -56 48 -74 34 -18 65 -7 124 46 62 55 190 117 272 132 89 16 184 13
270 -9 94 -24 159 -58 232 -122 62 -54 92 -65 126 -47 33 18 47 40 48 74 0 63
-173 192 -325 241 -99 33 -293 42 -391 20z"/>
</g>
</svg>
