<?xml version="1.0" standalone="no"?>
<!DOCTYPE svg PUBLIC "-//W3C//DTD SVG 20010904//EN"
 "http://www.w3.org/TR/2001/REC-SVG-20010904/DTD/svg10.dtd">
<svg version="1.0" xmlns="http://www.w3.org/2000/svg"
 width="256.000000pt" height="256.000000pt" viewBox="0 0 256.000000 256.000000"
 preserveAspectRatio="xMidYMid meet">

<g transform="translate(0.000000,256.000000) scale(0.100000,-0.100000)"
fill="#000000" stroke="none">
<path d="M1074 2461 c-40 -24 -54 -60 -68 -172 l-11 -92 -78 -33 -79 -33 -81
64 c-137 108 -155 104 -330 -74 -125 -126 -127 -128 -127 -173 0 -48 12 -71
90 -169 23 -30 39 -59 36 -68 -8 -28 -53 -131 -59 -137 -3 -3 -51 -12 -107
-19 -169 -22 -180 -38 -180 -276 0 -233 14 -252 189 -271 l98 -11 33 -79 32
-79 -66 -86 c-61 -80 -66 -90 -66 -136 l0 -50 133 -134 134 -133 50 0 c47 0
57 5 136 66 l87 66 78 -32 79 -33 11 -99 c21 -178 36 -188 271 -188 236 0 253
11 277 177 7 54 14 101 14 104 0 6 36 22 146 66 6 2 34 -15 63 -37 98 -78 121
-90 169 -90 45 0 47 2 173 126 70 70 133 140 139 155 20 46 4 89 -65 176 l-64
81 33 79 33 78 99 12 c118 15 138 23 164 65 18 30 20 51 20 215 0 180 0 182
-25 212 -29 34 -65 47 -150 56 -109 11 -113 13 -126 53 -6 20 -20 54 -31 75
l-19 37 65 85 c73 96 81 112 71 163 -5 30 -30 61 -134 164 -171 169 -183 172
-330 57 l-79 -61 -38 20 c-22 11 -55 25 -75 31 -41 13 -42 17 -55 141 -8 75
-23 110 -60 139 -25 20 -39 21 -208 21 -159 0 -185 -2 -212 -19z m351 -646
c189 -50 356 -224 395 -412 17 -82 8 -235 -18 -308 -93 -255 -368 -409 -634
-354 -83 17 -191 74 -257 134 -251 233 -239 617 26 836 127 104 324 146 488
104z"/>
<path d="M1160 1655 c-25 -8 -70 -31 -100 -52 -201 -140 -226 -425 -54 -597
201 -202 544 -126 644 141 31 83 26 214 -12 295 -37 80 -107 152 -187 191 -57
28 -77 32 -156 34 -57 2 -107 -3 -135 -12z"/>
</g>
</svg>
