<?xml version="1.0" standalone="no"?>
<!DOCTYPE svg PUBLIC "-//W3C//DTD SVG 20010904//EN"
 "http://www.w3.org/TR/2001/REC-SVG-20010904/DTD/svg10.dtd">
<svg version="1.0" xmlns="http://www.w3.org/2000/svg"
 width="256.000000pt" height="256.000000pt" viewBox="0 0 256.000000 256.000000"
 preserveAspectRatio="xMidYMid meet">

<g transform="translate(0.000000,256.000000) scale(0.100000,-0.100000)"
fill="#000000" stroke="none">
<path d="M240 2307 c-19 -6 -58 -34 -85 -62 -71 -70 -91 -145 -63 -239 16 -55
99 -138 154 -154 31 -9 284 -12 1036 -12 1128 0 1055 -5 1131 80 90 100 90
220 0 320 -77 85 -2 80 -1137 79 -699 -1 -1012 -4 -1036 -12z"/>
<path d="M240 1507 c-19 -6 -58 -34 -85 -62 -71 -70 -91 -145 -63 -239 16 -55
99 -138 154 -154 31 -9 284 -12 1036 -12 1128 0 1055 -5 1131 80 90 100 90
220 0 320 -77 85 -2 80 -1137 79 -699 -1 -1012 -4 -1036 -12z"/>
<path d="M240 707 c-19 -6 -58 -34 -85 -62 -71 -70 -91 -145 -63 -239 16 -55
99 -138 154 -154 31 -9 284 -12 1036 -12 1128 0 1055 -5 1131 80 90 100 90
220 0 320 -77 85 -2 80 -1137 79 -699 -1 -1012 -4 -1036 -12z"/>
</g>
</svg>
