<?xml version="1.0" standalone="no"?>
<!DOCTYPE svg PUBLIC "-//W3C//DTD SVG 20010904//EN"
 "http://www.w3.org/TR/2001/REC-SVG-20010904/DTD/svg10.dtd">
<svg version="1.0" xmlns="http://www.w3.org/2000/svg"
 width="512.000000pt" height="512.000000pt" viewBox="0 0 512.000000 512.000000"
 preserveAspectRatio="xMidYMid meet">

<g transform="translate(0.000000,512.000000) scale(0.100000,-0.100000)"
fill="#000000" stroke="none">
<path d="M1985 4473 c-215 -20 -466 -108 -652 -229 -356 -231 -587 -573 -669
-989 -28 -138 -25 -416 5 -555 116 -542 486 -962 997 -1129 377 -123 766 -97
1121 75 95 45 237 136 286 182 l27 26 34 -34 c19 -19 248 -280 510 -580 531
-608 538 -614 638 -608 115 8 208 105 208 217 0 91 -19 111 -615 632 -302 265
-563 493 -578 509 l-29 27 55 72 c146 188 250 436 288 686 18 115 15 341 -5
460 -133 771 -837 1309 -1621 1238z m378 -228 c241 -42 468 -159 651 -335 260
-250 396 -568 396 -925 0 -589 -392 -1090 -971 -1240 -142 -37 -360 -45 -510
-20 -262 43 -486 156 -679 341 -238 228 -366 506 -395 854 -8 96 9 264 39 383
133 524 589 910 1136 961 71 6 244 -3 333 -19z"/>
</g>
</svg>
