<?xml version="1.0" standalone="no"?>
<!DOCTYPE svg PUBLIC "-//W3C//DTD SVG 20010904//EN"
 "http://www.w3.org/TR/2001/REC-SVG-20010904/DTD/svg10.dtd">
<svg version="1.0" xmlns="http://www.w3.org/2000/svg"
 width="256.000000pt" height="256.000000pt" viewBox="0 0 256.000000 256.000000"
 preserveAspectRatio="xMidYMid meet">

<g transform="translate(0.000000,256.000000) scale(0.100000,-0.100000)"
fill="#000000" stroke="none">
<path d="M275 2456 c-65 -30 -112 -78 -142 -142 l-23 -52 2 -703 c3 -796 -2
-740 85 -826 73 -71 89 -73 490 -73 344 0 353 0 353 -20 0 -17 -40 -298 -55
-387 l-6 -33 -213 0 c-194 0 -214 -2 -229 -18 -17 -19 -22 -68 -9 -88 21 -33
49 -34 732 -34 l681 0 24 25 c30 29 32 68 5 95 -18 18 -33 20 -195 20 -131 0
-177 3 -180 13 -10 26 -63 411 -59 419 3 4 166 8 362 8 328 0 360 2 398 19 62
28 119 84 145 144 l24 52 0 695 0 695 -28 57 c-16 32 -46 73 -69 92 -80 69
-28 66 -1087 66 l-956 0 -50 -24z m1975 -131 c16 -8 39 -29 52 -47 l23 -33 3
-552 3 -553 -1041 0 -1040 0 0 551 c0 535 1 553 20 584 42 68 -15 65 1018 65
806 0 937 -2 962 -15z m75 -1335 c4 -6 4 -34 0 -62 -5 -38 -16 -60 -40 -87
l-33 -36 -951 -3 c-1052 -3 -990 -6 -1031 61 -13 21 -20 50 -20 85 l0 52 1034
0 c710 0 1037 -3 1041 -10z m-903 -540 c15 -113 27 -211 27 -217 1 -10 -37
-13 -157 -13 -87 0 -161 2 -163 5 -3 2 7 93 22 202 15 109 28 206 28 216 1 16
11 17 108 15 l107 -3 28 -205z"/>
<path d="M1049 2120 c-14 -4 -38 -15 -53 -25 -54 -36 -56 -47 -56 -387 0 -356
0 -357 82 -397 51 -24 86 -26 131 -7 39 16 424 285 451 315 12 13 21 41 24 74
3 42 0 58 -20 86 -24 36 -398 312 -455 337 -35 15 -64 17 -104 4z m261 -283
c91 -66 168 -123 173 -127 10 -9 -381 -282 -393 -275 -11 7 -14 538 -3 548 8
9 22 0 223 -146z"/>
</g>
</svg>
